<svg xmlns="http://www.w3.org/2000/svg" viewBox="0 0 128 128" fill="none">
  <defs>
    <linearGradient id="aGrad" x1="24" y1="14" x2="102" y2="112" gradientUnits="userSpaceOnUse">
      <stop offset="0" stop-color="#E8F2DD"/>
      <stop offset="0.5" stop-color="#9DBA6E"/>
      <stop offset="1" stop-color="#477023"/>
    </linearGradient>
  </defs>

  <path
    d="M64 10L101 31V75L64 118L27 75V31L64 10Z"
    stroke="url(#aGrad)"
    stroke-width="5"
    stroke-linejoin="round"
  />

  <path
    d="M64 25V92"
    stroke="url(#aGrad)"
    stroke-width="5"
    stroke-linecap="round"
  />

  <path
    d="M40 39C47 34 55 32 64 32C73 32 81 34 88 39"
    stroke="url(#aGrad)"
    stroke-width="4.5"
    stroke-linecap="round"
  />

  <path
    d="M36 56C44 50 54 47 64 47C74 47 84 50 92 56"
    stroke="url(#aGrad)"
    stroke-width="4.5"
    stroke-linecap="round"
  />

  <path
    d="M32 73C42 66 53 62 64 62C75 62 86 66 96 73"
    stroke="url(#aGrad)"
    stroke-width="4.5"
    stroke-linecap="round"
  />

  <circle cx="64" cy="25" r="5" fill="#EEF6E5"/>
</svg>